<?xml version="1.0" encoding="UTF-8"?><svg xmlns="http://www.w3.org/2000/svg" viewBox="0 0 864.4 862.5"><defs><style>.cls-1{fill:#5d391a;}.cls-1,.cls-2,.cls-3{stroke-width:0px;}.cls-2{fill:none;}.cls-4{fill:#a64f3f;font-family:EuroWestern, 'Euro Western';font-size:126px;stroke:#5c3718;stroke-miterlimit:10;stroke-width:2.9px;}.cls-3{fill:#fff;}</style></defs><g id="Layer_23"><rect class="cls-3" x="91.6" y="359.3" width="710.7" height="131.6" rx="29" ry="29"/></g><g id="C_Fiddler"><path class="cls-2" d="M131,384.9s0,0,0,0c0,0,0,0,0,0Z"/><path class="cls-2" d="M120.5,428.7s0,0,0-.1c0,0,0,0,0,.1Z"/><path class="cls-1" d="M120.5,428.7s0,0,0-.1c0,0,0,0,0,.1Z"/><path class="cls-2" d="M260.1,437.3c-.3.2-.5.6-.6.9,0,.3-.1.6,0,.8.4.5.9.9,1.5,1.2.4.2.8,0,.8-.5,0-.3-.1-.5-.4-.8-.5-.5-1.1-1-1.4-1.7Z"/><path class="cls-2" d="M237.9,441.9c-.4,0-.7-.1-1.2,0-.7-.1-1.3.2-1.8.8-.8,1-1.9,1.9-3.1,2.5-.5.3-1,.7-1.5,1-.7.5-1.4,1-2.2,1.5-1.6.9-3.4,1.2-5.1,1.5-.4,0-.8.1-1.2.2-.3,0-.6,0-1,0-.3.1-.6.2-1,.4-.6,0-1.1,0-1.7.1h-.2c-.1,0-.3-.1-.6-.1-.7,0-1.5,0-2.2-.2-.7-.2-1.4-.3-2.1-.6-1.2-.5-2.4-1-3.6-1.7-.4-.2-.6-.6-1.1-.7,0,.6.2,1.2.2,1.7.1,1.1.3,2.2.6,3.3.1.5.3,1.1.5,1.6.3.9.6,1.8.9,2.7.4.9.8,1.8.9,2.7,0,.5.4.7.8,1,.7.5,1.6.6,2.4.6.7,0,1.3,0,2-.1.5,0,.9-.4,1.2-.7.2,0,.4-.1.6-.2,0,0,.2,0,.2-.1.3-.2.6-.4.9-.7.3-.2.5-.5.8-.7.1,0,.2,0,.5-.1.1,0,.3-.1.4-.2.4-.3.8-.6,1.3-.9,1-.5,2-1.2,2.9-1.8,1.1-.8,2.2-1.5,3.3-2.2.8-.5,1.5-1,2.3-1.5,1-.7,2.1-1.3,3.5-1.5.8,0,1.2-.6,1.4-1.3,0-.2,0-.4,0-.7,0-.7.2-1.3.6-1.9.2-.4.4-.8.4-1.2,0-.6.2-1.1.6-1.6,0-.1.2-.2.3-.3.1-.2,0-.3-.1-.3Z"/><path class="cls-2" d="M237.9,444.2c-.4,0-.7-.1-1.2,0-.7-.1-1.3.2-1.8.8-.8,1-1.9,1.9-3.1,2.5-.5.3-1,.7-1.5,1-.7.5-1.4,1-2.2,1.5-1.6.9-3.4,1.2-5.1,1.5-.4,0-.8.1-1.2.2-.3,0-.6,0-1,0-.3.1-.6.2-1,.4-.6,0-1.1,0-1.7.1h-.2c-.1,0-.3-.1-.6-.1-.7,0-1.5,0-2.2-.2-.7-.2-1.4-.3-2.1-.6-1.2-.5-2.4-1-3.6-1.7-.4-.2-.6-.6-1.1-.7,0,.6.2,1.2.2,1.7.1,1.1.3,2.2.6,3.3.1.5.3,1.1.5,1.6.3.9.6,1.8.9,2.7.4.9.8,1.8.9,2.7,0,.5.4.7.8,1,.7.5,1.6.6,2.4.6.7,0,1.3,0,2-.1.5,0,.9-.4,1.2-.7.2,0,.4-.1.6-.2,0,0,.2,0,.2-.1.3-.2.6-.4.9-.7.3-.2.5-.5.8-.7.1,0,.2,0,.5-.1.1,0,.3-.1.4-.2.4-.3.8-.6,1.3-.9,1-.5,2-1.2,2.9-1.8,1.1-.8,2.2-1.5,3.3-2.2.8-.5,1.5-1,2.3-1.5,1-.7,2.1-1.3,3.5-1.5.8,0,1.2-.6,1.4-1.3,0-.2,0-.4,0-.7,0-.7.2-1.3.6-1.9.2-.4.4-.8.4-1.2,0-.6.2-1.1.6-1.6,0-.1.2-.2.3-.3.1-.2,0-.3-.1-.3Z"/><path class="cls-2" d="M260.1,439.7c-.3.2-.5.6-.6.9,0,.3-.1.6,0,.8.4.5.9.9,1.5,1.2.4.2.8,0,.8-.5,0-.3-.1-.5-.4-.8-.5-.5-1.1-1-1.4-1.7Z"/><path class="cls-1" d="M288.6,455.9c0-.4-.3-.6-.7-.7-.5-.1-1-.1-1.5-.2-.7,0-1.4,0-2-.2-.2,0-.3-.1-.5-.2-.3-.2-.4-.3-.2-.6.1-.2.3-.5.4-.7.3-.5.3-.9-.2-1.3-.5-.4-1.9-.3-2.5,0-.3.2-.4.4-.4.7,0,.5-.3.7-.9.5-.4-.2-.9-.4-1.3-.6-.5-.2-.5-.6-.1-1,.2-.2.5-.3.8-.4,1-.3,1.8-.9,2.2-1.8,0-.3.2-.5.3-.8,0-.6,0-1.2-1-1.4-.7-.2-1.4-.1-2.1,0-.5.1-1.1.3-1.5.6-.4.3-.6.6-.7,1,0,.4-.1.8-.1,1.2,0,.3-.2.4-.5.2-.2,0-.4-.2-.5-.4-.9-1.1-2-1.7-3.4-2.1-.2,0-.4-.2-.6-.3-.2-.1-.3-.3-.3-.4,0-.3,0-.6,0-.9,0-.4.4-.5.7-.6.3-.1.5-.2.8-.3,1.4-.6,1.9-1.7,1.4-3-.2-.5-.4-.9-.9-1.1-.7-.2-1.5-.2-2.2.1-.9.4-1.5,1.2-1.8,2.1-.1.4-.1.8-.2,1.1,0,0,0,.1,0,.2,0,.5-.1.6-.4.7-.3,0-.8-.3-.8-.6,0-.6-.4-1.2-.5-1.8,0-.3-.2-.5-.2-.8,0-.7-.4-1.2-1-1.6-.6-.4-1.2-.9-1.9-1.3-.7-.4-1.2-.9-1.7-1.6-.3-.5-.5-1-.5-1.6,0-.5,0-1-.2-1.5-.1-.3-.3-.4-.5-.5-.6-.2-1.3-.2-1.9,0-.8.2-1.7.4-2.4,1,0,0-.2,0-.2.2-.3.6-.9.9-1.4,1.2-.8.4-1.7.6-2.6,0-.4-.3-.8-.7-1.2-1-.3-.3-.7-.6-1.1-.8-.6-.3-1-.8-1.3-1.3-.1-.2-.1-.5-.1-.8,0-.5-.3-.9-.4-1.3-.1-.4-1-.8-1.7-.5-.6.2-1,.7-1.3,1.2-.2.5-.5,1-.8,1.4-.2.3-.4.6-.4.9,0,.6-.4.8-1,.8-.6,0-1.2-.2-1.7-.4-1-.3-1.5-1-1.8-1.9-.1-.4-.2-.9-.1-1.4,0-1.8-.2-3.5-.7-5.3-.2-.8-.6-1.4-1.3-1.9-.5-.4-1-.8-1.6-1.1-.5-.3-.9-.7-1.3-1.1-.8-.6-1.7-1-2.7-1.4-1.1-.4-2.2-.5-3.3-.7-1-.1-2.1-.2-3.1-.4-1.2-.2-2.4-.4-3.6-.3-.7,0-1.3-.2-1.8-.6-.4-.2-.8-.5-1.4-.5-.4,0-.6.1-.8.4-.4.6-1,1.2-1.8,1.4-1,.3-2,.4-3,.3,0,0,0,0-.1,0-.8,0-1.4-.2-2-.7-.4-.3-.9-.3-1.3-.7.2-.3.4-.6.6-1,.4-.9.9-1.7,1.3-2.6.6-1.1,1.3-2.1,1.9-3.2.3-.5.6-1,.8-1.5.9-1.6,1.9-3.2,3-4.6,1.3-1.6,2.5-3.1,3.8-4.7.5-.7,1.2-1.3,2-1.9.5-.4,1.1-.8,1.6-1.2.6-.5,1.1-1,1.5-1.7.2-.5.2-.9.1-1.4,0-.3-.4-.4-.6-.5-.5-.1-1-.2-1.6-.1-.5,0-.7.4-1,.7-.1.1-.2.3-.4.4-1,.8-1.7,1.9-2.4,2.9-.3.5-.8.9-1.1,1.4-.9,1.2-1.8,2.3-2.7,3.5-1.1,1.4-2.1,2.9-3,4.4-.6,1-1.1,2-1.6,2.9-1.3,2.2-2.6,4.5-4.1,6.5-.2.3-.4.5-.7.8-.2.2-.3.2-.4,0-.2-.2-.3-.4-.5-.6-.3-.5-.6-.9-.8-1.5-.2-.4-.3-.9-.4-1.3,0-.4-.2-.7-.2-1.1-.2-.8-.7-1.1-1.5-1.2,0,0-.2,0-.2,0-.9,0-1.7-.4-2.5-.8-1.1-.6-2.2-1.1-3.4-1.6-.7-.3-1.3-.7-1.9-1-.9-.5-1.8-.9-2.8-1-.2,0-.4-.2-.6-.2-.7-.1-1.5-.3-2.2-.3-1.2,0-2.3-.1-3.5-.2-1,0-2,0-3,0-1.2.1-2.4.1-3.6.1-.5,0-.6,0-.3-.5.5-.9.2-1.7-.2-2.6-.1-.2-.3-.4-.4-.7-.2-.4-.2-.7.2-1,.4-.3.6-.7.5-1.2,0-.3,0-.5,0-.8,0-.5.2-.8.7-1.1.5-.2.7-.6.7-1.1,0-1.5-.2-2.8-1.3-4-.2-.2-.3-.4-.3-.6,0-1-.3-2-1-2.8-.3-.4-.6-.9-.9-1.3,0-.1-.1-.2-.1-.4,0-.6,0-1.3,0-1.9,0-.1,0-.3,0-.4.3-.4.4-.9.5-1.3,0-.2,0-.5.3-.7.2-.2,0-.5,0-.7-.2-.5-.3-1.1-.5-1.6-.3-.7-.5-1.5-.7-2.2-.3-.8-.6-1.7-1.1-2.5-.3-.4-.5-.9-.8-1.4-.3-.7-.3-1.5-.2-2.2.1-.6.3-1.2.4-1.8.2-.9,0-1.8-.2-2.7,0-.3-.2-.6-.4-.9-.2-1.2-.4-1.9-1.9-2.3-2.7-.6-5.6.6-8.3,1.1-.2,0-.3,0-.5,0-2,0-4.1,0-6.1,0-1.3-.1-2.6-.3-3.9-.4-2.9-.2-6.3-.9-9,.4,0,0,0,0,0,0-.2,0-.5.2-.7.3-.7.4-1.5.7-2.4.8-1.7.2-2.8,1.3-3.2,2.7-.1.4-.3.8-.4,1.2-.2.5-.7.8-1,1.2-.4.5-1,.9-1.4,1.4-1.1,1.2-2.1,2.4-2.7,3.9-.5,1.2-.8,2.4-1,3.6,0,.2,0,.3-.1.5-.4.7-.5,1.4-.6,2.1-.1.6-.2,1.3-.2,1.9,0,0,0,.1,0,.2-.1,1-.3,2-.3,3.1,0,.6.1,1.2.2,1.9,0,.2.1.4.2.6.2.5.2,1,.2,1.5,0,.8.3,1.6.5,2.4,0,.2,0,.4.1.5,0,.1,0,.3.1.4.7.9.7,1.9,1.3,2.8.3.6.7,1.2,1,1.7.4.6.8,1.3,1,2,0,.3.2.6.5.8.2.2.3.4.4.6.6,1.1,1.5,1.7,2.8,1.9.4,0,.7.1,1.1.1.6,0,.8.2.8.7,0,.3,0,.5,0,.8,0,.8-.7,1.4-1.6,1.2-.5-.2-.9,0-1.3.3,0,0-.2.1-.3.2-.8.2-1.4.6-2,1.1-.8.6-1.6,1-2.5,1.4-1.2.5-2.4,1.2-3.6,1.8-.2.1-.5.2-.8.3-.8.3-1.5.8-2.2,1.2-1,.7-2.1,1.2-3.3,1.2-1,0-1.9.5-2.5,1.3,0,0,0,0,0,0-2.8,0-3.1,1.3-2.9,4,.2,2.4-.3,3.7-.9,6.1-1.2,5.1-3.4,10.2-3.3,15.5,0,3.3,0,4.5-1.4,7.5-1.3,2.8-3.1,6.4-3.4,9.5-.6,5.1,4,11.4,6.5,15.6,1.2,2,2.6,3.7,3.7,5.6.8,1.5,1.3,3,1.8,4.5,0,.8,0,1.5,0,2.3,0,.3,0,.6.2.8,0,0,0,0,0,.1h89.3s0,0,0,0c.4,0,.7-.2.9-.4,1.5-.8,2.9-1.6,4.4-2.4,1.2-.7,2.4-1.4,3.7-2,.8-.4,1.7-.8,2.5-1.1.7-.3,1.5-.4,2.3-.6,1.7-.4,3.5-.4,5.2-.4.9,0,1.7,0,2.6-.2,1.4-.3,2.7-.8,3.5-2,.2-.3.5-.6.8-.8.9-.8,1.2-1.8,1.4-2.9.3-1.1.3-2.3.7-3.5.3-.9.4-1.9.3-2.9,0-.3-.1-.7-.2-1-.3-1-.1-1.9.3-2.8.3-.8.6-1.6.8-2.3.2-.7.6-1.3,1.1-1.8.4-.4.7-.8,1-1.2.5-.8,1.2-1.4,1.8-2.1,1-1.2,2.4-2,3.8-2.7,1.6-.8,3.2-1.5,4.9-2,1.3-.3,2.5-.9,3.7-1.3.6-.2,1.2-.3,1.8-.4.8-.1,1.4-.4,2-1,.6-.6,1.4-1.1,2.1-1.6.1,0,.2-.1.3-.2.4-.4.8-.4,1.3-.2.5.2.8.5.9,1,0,.6.2.8.9.8.4,0,.8.1,1.2.2.6.2.8.6.6,1.2-.2.7-.8,1.2-1.3,1.8-.4.5-.8.9-1.4,1.3-.2.2-.3.4-.4.7,0,.3,0,.6.3.8,1.4,1,3.9.5,4.3-1.4,0-.3.1-.5.1-.8,0-1.1,1-1.6,2.1-1.3,1,.3,1.4,1,1.7,1.8.1.3.3.5.4.8.1.4.3.4.8.4,0,0,.1,0,.2,0,.6,0,.7,0,.7.6,0,.8-.4,1.3-1.2,1.8-.5.3-.8.8-.8,1.5,0,.4,0,.8,0,1.3,0,.5.2,1,.4,1.4.2.3.4.6.9.5.5,0,1,0,1.5-.2.4-.2.7-.4.9-.7.3-.5.5-1.1.5-1.6,0-.8.3-1.4.7-2.1.2-.3.4-.3.7,0,0,0,0,0,.1.1.5.7,1.3,1.1,2.2,1.3.5.1,1,.1,1.5.1,1,0,2,0,3-.2.6-.1,1.2-.4,1.6-.8.3-.2.5-.5.6-.9,0-.2.1-.3.3-.5.4-.6.8-1.1.9-1.8,0,0,0-.3.2-.3v-1.8s0,0-.1,0ZM238,444.5c0,.1-.2.2-.3.3-.4.5-.6,1-.6,1.6,0,.4-.2.8-.4,1.2-.3.6-.5,1.2-.6,1.9,0,.2,0,.4,0,.7-.2.7-.6,1.2-1.4,1.3-1.3.2-2.4.8-3.5,1.5-.8.5-1.5,1-2.3,1.5-1.1.7-2.2,1.5-3.3,2.2-.9.7-1.9,1.3-2.9,1.8-.5.2-.9.6-1.3.9-.1,0-.3.1-.4.2-.2.1-.4.2-.5.1-.3.3-.5.5-.8.7-.3.2-.6.5-.9.7,0,0-.2,0-.2.1-.2,0-.4.2-.6.2-.2.3-.7.6-1.2.7-.6.1-1.3.1-2,.1-.9,0-1.7-.1-2.4-.6-.4-.2-.7-.5-.8-1-.1-1-.6-1.8-.9-2.7-.4-.9-.7-1.8-.9-2.7-.2-.5-.3-1.1-.5-1.6-.3-1.1-.5-2.2-.6-3.3,0-.5-.2-1.1-.2-1.7.5.1.8.5,1.1.7,1.1.7,2.3,1.2,3.6,1.7.7.3,1.4.4,2.1.6.7.2,1.5.2,2.2.2.3,0,.5,0,.6.1h.2c.6,0,1.1-.1,1.7-.1.3-.1.6-.3,1-.4.3,0,.6,0,1,0,.4,0,.8-.1,1.2-.2,1.8-.3,3.6-.6,5.1-1.5.8-.4,1.5-1,2.2-1.5.5-.4,1-.7,1.5-1,1.2-.7,2.2-1.5,3.1-2.5.5-.6,1.1-.9,1.8-.8.5,0,.8,0,1.2,0,.2,0,.3.2.1.3ZM261,442.6c-.6-.3-1.1-.7-1.5-1.2-.2-.2-.1-.6,0-.8.1-.3.3-.7.6-.9.3.7.9,1.2,1.4,1.7.2.2.4.5.4.8,0,.4-.4.7-.8.5Z"/></g><g id="C_Main_Text"><text class="cls-4" transform="translate(234.7 470.5) scale(.6 1)"><tspan x="0" y="0">The Fiddle &amp; Bow</tspan></text></g></svg>